<mxfile host="app.diagrams.net" modified="2023-09-08T17:43:51.780Z" agent="Mozilla/5.0 (Windows NT 10.0; Win64; x64) AppleWebKit/537.36 (KHTML, like Gecko) Chrome/116.0.0.0 Safari/537.36" etag="lMcuibctg8gTNU28MhRw" version="21.7.3" type="gitlab">
  <diagram name="Page-1" id="e7e014a7-5840-1c2e-5031-d8a46d1fe8dd">
    <mxGraphModel dx="2856" dy="1708" grid="1" gridSize="10" guides="1" tooltips="1" connect="1" arrows="1" fold="1" page="1" pageScale="1" pageWidth="1169" pageHeight="826" background="none" math="0" shadow="0">
      <root>
        <mxCell id="0" />
        <mxCell id="1" parent="0" />
        <mxCell id="2" value="QuizBllitz (temporaire)" style="swimlane;whiteSpace=wrap" parent="1" vertex="1">
          <mxGeometry x="70" y="-120" width="780" height="830" as="geometry" />
        </mxCell>
        <mxCell id="AOKANxjYsAy5iQyD7HsB-47" value="Créer un compte" style="ellipse;whiteSpace=wrap;html=1;" vertex="1" parent="2">
          <mxGeometry y="440" width="140" height="70" as="geometry" />
        </mxCell>
        <mxCell id="AOKANxjYsAy5iQyD7HsB-48" value="Créer une partie" style="ellipse;whiteSpace=wrap;html=1;" vertex="1" parent="2">
          <mxGeometry x="90" y="365" width="140" height="70" as="geometry" />
        </mxCell>
        <mxCell id="AOKANxjYsAy5iQyD7HsB-49" value="Joindre une partie" style="ellipse;whiteSpace=wrap;html=1;" vertex="1" parent="2">
          <mxGeometry x="550" y="110" width="140" height="70" as="geometry" />
        </mxCell>
        <mxCell id="AOKANxjYsAy5iQyD7HsB-50" value="Choisir un mot de passe" style="ellipse;whiteSpace=wrap;html=1;" vertex="1" parent="2">
          <mxGeometry x="140" y="440" width="140" height="70" as="geometry" />
        </mxCell>
        <mxCell id="AOKANxjYsAy5iQyD7HsB-52" value="Répondre à une question (QCH)" style="ellipse;whiteSpace=wrap;html=1;" vertex="1" parent="2">
          <mxGeometry x="500" y="210" width="140" height="70" as="geometry" />
        </mxCell>
        <mxCell id="AOKANxjYsAy5iQyD7HsB-54" value="Pauser la partie" style="ellipse;whiteSpace=wrap;html=1;" vertex="1" parent="2">
          <mxGeometry x="10" y="630" width="140" height="70" as="geometry" />
        </mxCell>
        <mxCell id="AOKANxjYsAy5iQyD7HsB-55" value="Engager le mode panique" style="ellipse;whiteSpace=wrap;html=1;" vertex="1" parent="2">
          <mxGeometry x="10" y="760" width="140" height="70" as="geometry" />
        </mxCell>
        <mxCell id="AOKANxjYsAy5iQyD7HsB-56" value="Voir les résultats" style="ellipse;whiteSpace=wrap;html=1;" vertex="1" parent="2">
          <mxGeometry x="235" y="500" width="140" height="70" as="geometry" />
        </mxCell>
        <mxCell id="AOKANxjYsAy5iQyD7HsB-57" value="Abandonner la partie" style="ellipse;whiteSpace=wrap;html=1;" vertex="1" parent="2">
          <mxGeometry x="510" y="300" width="140" height="70" as="geometry" />
        </mxCell>
        <mxCell id="AOKANxjYsAy5iQyD7HsB-53" value="Créer une question" style="ellipse;whiteSpace=wrap;html=1;" vertex="1" parent="2">
          <mxGeometry x="160" y="30" width="140" height="70" as="geometry" />
        </mxCell>
        <mxCell id="AOKANxjYsAy5iQyD7HsB-59" value="Sauvegarder un jeu" style="ellipse;whiteSpace=wrap;html=1;" vertex="1" parent="2">
          <mxGeometry x="230" y="340" width="140" height="70" as="geometry" />
        </mxCell>
        <mxCell id="AOKANxjYsAy5iQyD7HsB-60" value="Envoyer un message dans la zone de clavardage" style="ellipse;whiteSpace=wrap;html=1;" vertex="1" parent="2">
          <mxGeometry x="490" y="380" width="140" height="70" as="geometry" />
        </mxCell>
        <mxCell id="AOKANxjYsAy5iQyD7HsB-63" value="Écrire sa réponse (QRL)" style="ellipse;whiteSpace=wrap;html=1;" vertex="1" parent="2">
          <mxGeometry x="520" y="490" width="140" height="70" as="geometry" />
        </mxCell>
        <mxCell id="AOKANxjYsAy5iQyD7HsB-64" value="Consulter un historique de partie" style="ellipse;whiteSpace=wrap;html=1;" vertex="1" parent="2">
          <mxGeometry x="170" y="170" width="140" height="70" as="geometry" />
        </mxCell>
        <mxCell id="AOKANxjYsAy5iQyD7HsB-65" value="Réinitialiser l&#39;historique des parties" style="ellipse;whiteSpace=wrap;html=1;" vertex="1" parent="2">
          <mxGeometry x="315" y="210" width="140" height="70" as="geometry" />
        </mxCell>
        <mxCell id="AOKANxjYsAy5iQyD7HsB-68" value="Ajuster la visibilté de son jeu" style="ellipse;whiteSpace=wrap;html=1;" vertex="1" parent="2">
          <mxGeometry x="20" y="170" width="140" height="70" as="geometry" />
        </mxCell>
        <mxCell id="AOKANxjYsAy5iQyD7HsB-69" value="Choisir un nom d&#39;utilisateur" style="ellipse;whiteSpace=wrap;html=1;" vertex="1" parent="2">
          <mxGeometry x="330" y="440" width="140" height="70" as="geometry" />
        </mxCell>
        <mxCell id="AOKANxjYsAy5iQyD7HsB-73" value="Créer un jeu" style="ellipse;whiteSpace=wrap;html=1;" vertex="1" parent="2">
          <mxGeometry x="10" y="30" width="140" height="70" as="geometry" />
        </mxCell>
        <mxCell id="AOKANxjYsAy5iQyD7HsB-82" value="Tester le jeu" style="ellipse;whiteSpace=wrap;html=1;" vertex="1" parent="2">
          <mxGeometry x="120" y="590" width="140" height="70" as="geometry" />
        </mxCell>
        <mxCell id="AOKANxjYsAy5iQyD7HsB-83" value="Corriger les questions" style="ellipse;whiteSpace=wrap;html=1;" vertex="1" parent="2">
          <mxGeometry x="10" y="540" width="140" height="70" as="geometry" />
        </mxCell>
        <mxCell id="AOKANxjYsAy5iQyD7HsB-84" value="Bannir un participant du chat" style="ellipse;whiteSpace=wrap;html=1;" vertex="1" parent="2">
          <mxGeometry x="500" y="40" width="140" height="70" as="geometry" />
        </mxCell>
        <mxCell id="AOKANxjYsAy5iQyD7HsB-85" value="Verrouiller l&#39;accès à la partie" style="ellipse;whiteSpace=wrap;html=1;" vertex="1" parent="2">
          <mxGeometry x="220" y="100" width="140" height="70" as="geometry" />
        </mxCell>
        <mxCell id="AOKANxjYsAy5iQyD7HsB-86" value="Exporter une partie" style="ellipse;whiteSpace=wrap;html=1;" vertex="1" parent="2">
          <mxGeometry x="310" y="30" width="140" height="70" as="geometry" />
        </mxCell>
        <mxCell id="AOKANxjYsAy5iQyD7HsB-87" value="Importer une partie" style="ellipse;whiteSpace=wrap;html=1;" vertex="1" parent="2">
          <mxGeometry x="110" y="700" width="140" height="70" as="geometry" />
        </mxCell>
        <mxCell id="AOKANxjYsAy5iQyD7HsB-88" value="Modifier une question" style="ellipse;whiteSpace=wrap;html=1;" vertex="1" parent="2">
          <mxGeometry x="220" y="270" width="140" height="70" as="geometry" />
        </mxCell>
        <mxCell id="AOKANxjYsAy5iQyD7HsB-90" value="" style="endArrow=none;html=1;rounded=0;exitX=0.467;exitY=0.683;exitDx=0;exitDy=0;exitPerimeter=0;" edge="1" parent="2" source="AOKANxjYsAy5iQyD7HsB-41">
          <mxGeometry width="50" height="50" relative="1" as="geometry">
            <mxPoint x="-50" y="440" as="sourcePoint" />
            <mxPoint x="90" y="400" as="targetPoint" />
          </mxGeometry>
        </mxCell>
        <mxCell id="AOKANxjYsAy5iQyD7HsB-113" value="Supprimer un jeu" style="ellipse;whiteSpace=wrap;html=1;" vertex="1" parent="2">
          <mxGeometry x="10" y="290" width="140" height="70" as="geometry" />
        </mxCell>
        <mxCell id="AOKANxjYsAy5iQyD7HsB-41" value="Organisateur" style="shape=umlActor;verticalLabelPosition=bottom;verticalAlign=top;html=1;" vertex="1" parent="1">
          <mxGeometry x="-190" y="390" width="30" height="60" as="geometry" />
        </mxCell>
        <mxCell id="AOKANxjYsAy5iQyD7HsB-42" value="Participant" style="shape=umlActor;verticalLabelPosition=bottom;verticalAlign=top;html=1;" vertex="1" parent="1">
          <mxGeometry x="1020" y="200" width="30" height="60" as="geometry" />
        </mxCell>
        <mxCell id="AOKANxjYsAy5iQyD7HsB-44" value="Administrateur" style="shape=umlActor;verticalLabelPosition=bottom;verticalAlign=top;html=1;" vertex="1" parent="1">
          <mxGeometry x="-150" y="110" width="30" height="60" as="geometry" />
        </mxCell>
        <mxCell id="AOKANxjYsAy5iQyD7HsB-46" value="Serveur" style="shape=umlActor;verticalLabelPosition=bottom;verticalAlign=top;html=1;" vertex="1" parent="1">
          <mxGeometry x="1030" y="630" width="30" height="60" as="geometry" />
        </mxCell>
        <mxCell id="AOKANxjYsAy5iQyD7HsB-74" value="" style="endArrow=none;html=1;rounded=0;exitX=0.5;exitY=0.5;exitDx=0;exitDy=0;exitPerimeter=0;" edge="1" parent="1" source="AOKANxjYsAy5iQyD7HsB-44" target="AOKANxjYsAy5iQyD7HsB-50">
          <mxGeometry width="50" height="50" relative="1" as="geometry">
            <mxPoint x="80" y="140" as="sourcePoint" />
            <mxPoint x="130" y="90" as="targetPoint" />
          </mxGeometry>
        </mxCell>
        <mxCell id="AOKANxjYsAy5iQyD7HsB-75" value="" style="endArrow=none;html=1;rounded=0;entryX=0.5;entryY=0;entryDx=0;entryDy=0;exitX=0.5;exitY=0.5;exitDx=0;exitDy=0;exitPerimeter=0;" edge="1" parent="1" source="AOKANxjYsAy5iQyD7HsB-44" target="AOKANxjYsAy5iQyD7HsB-47">
          <mxGeometry width="50" height="50" relative="1" as="geometry">
            <mxPoint x="80" y="140" as="sourcePoint" />
            <mxPoint x="130" y="90" as="targetPoint" />
          </mxGeometry>
        </mxCell>
        <mxCell id="AOKANxjYsAy5iQyD7HsB-76" value="" style="endArrow=none;html=1;rounded=0;entryX=0;entryY=0.5;entryDx=0;entryDy=0;exitX=0.5;exitY=0.5;exitDx=0;exitDy=0;exitPerimeter=0;" edge="1" parent="1" source="AOKANxjYsAy5iQyD7HsB-44" target="AOKANxjYsAy5iQyD7HsB-69">
          <mxGeometry width="50" height="50" relative="1" as="geometry">
            <mxPoint x="80" y="140" as="sourcePoint" />
            <mxPoint x="130" y="90" as="targetPoint" />
          </mxGeometry>
        </mxCell>
        <mxCell id="AOKANxjYsAy5iQyD7HsB-77" value="" style="endArrow=none;html=1;rounded=0;exitX=0.971;exitY=0.643;exitDx=0;exitDy=0;exitPerimeter=0;entryX=0.6;entryY=0.7;entryDx=0;entryDy=0;entryPerimeter=0;" edge="1" parent="1" source="AOKANxjYsAy5iQyD7HsB-69" target="AOKANxjYsAy5iQyD7HsB-42">
          <mxGeometry width="50" height="50" relative="1" as="geometry">
            <mxPoint x="740" y="190" as="sourcePoint" />
            <mxPoint x="790" y="140" as="targetPoint" />
          </mxGeometry>
        </mxCell>
        <mxCell id="AOKANxjYsAy5iQyD7HsB-78" value="" style="endArrow=none;html=1;rounded=0;entryX=0;entryY=0.5;entryDx=0;entryDy=0;exitX=0.5;exitY=0.5;exitDx=0;exitDy=0;exitPerimeter=0;" edge="1" parent="1" source="AOKANxjYsAy5iQyD7HsB-44" target="AOKANxjYsAy5iQyD7HsB-73">
          <mxGeometry width="50" height="50" relative="1" as="geometry">
            <mxPoint x="80" y="140" as="sourcePoint" />
            <mxPoint x="130" y="90" as="targetPoint" />
          </mxGeometry>
        </mxCell>
        <mxCell id="AOKANxjYsAy5iQyD7HsB-79" value="" style="endArrow=none;html=1;rounded=0;exitX=0.367;exitY=0.717;exitDx=0;exitDy=0;exitPerimeter=0;" edge="1" parent="1" source="AOKANxjYsAy5iQyD7HsB-41" target="AOKANxjYsAy5iQyD7HsB-47">
          <mxGeometry width="50" height="50" relative="1" as="geometry">
            <mxPoint x="80" y="345" as="sourcePoint" />
            <mxPoint x="130" y="295" as="targetPoint" />
          </mxGeometry>
        </mxCell>
        <mxCell id="AOKANxjYsAy5iQyD7HsB-80" value="" style="endArrow=none;html=1;rounded=0;entryX=0.314;entryY=0.943;entryDx=0;entryDy=0;entryPerimeter=0;exitX=0.433;exitY=0.65;exitDx=0;exitDy=0;exitPerimeter=0;" edge="1" parent="1" source="AOKANxjYsAy5iQyD7HsB-41" target="AOKANxjYsAy5iQyD7HsB-50">
          <mxGeometry width="50" height="50" relative="1" as="geometry">
            <mxPoint x="80" y="345" as="sourcePoint" />
            <mxPoint x="130" y="295" as="targetPoint" />
          </mxGeometry>
        </mxCell>
        <mxCell id="AOKANxjYsAy5iQyD7HsB-81" value="" style="endArrow=none;html=1;rounded=0;exitX=0.567;exitY=0.667;exitDx=0;exitDy=0;exitPerimeter=0;" edge="1" parent="1" source="AOKANxjYsAy5iQyD7HsB-41" target="AOKANxjYsAy5iQyD7HsB-69">
          <mxGeometry width="50" height="50" relative="1" as="geometry">
            <mxPoint x="80" y="345" as="sourcePoint" />
            <mxPoint x="130" y="295" as="targetPoint" />
          </mxGeometry>
        </mxCell>
        <mxCell id="AOKANxjYsAy5iQyD7HsB-89" value="" style="endArrow=none;html=1;rounded=0;exitX=0.5;exitY=0.5;exitDx=0;exitDy=0;exitPerimeter=0;" edge="1" parent="1" source="AOKANxjYsAy5iQyD7HsB-44" target="AOKANxjYsAy5iQyD7HsB-53">
          <mxGeometry width="50" height="50" relative="1" as="geometry">
            <mxPoint x="80" y="140" as="sourcePoint" />
            <mxPoint x="130" y="90" as="targetPoint" />
          </mxGeometry>
        </mxCell>
        <mxCell id="AOKANxjYsAy5iQyD7HsB-93" value="" style="endArrow=none;html=1;rounded=0;entryX=0;entryY=0.5;entryDx=0;entryDy=0;exitX=0.6;exitY=0.683;exitDx=0;exitDy=0;exitPerimeter=0;" edge="1" parent="1" source="AOKANxjYsAy5iQyD7HsB-41" target="AOKANxjYsAy5iQyD7HsB-54">
          <mxGeometry width="50" height="50" relative="1" as="geometry">
            <mxPoint x="80" y="345" as="sourcePoint" />
            <mxPoint x="130" y="295" as="targetPoint" />
          </mxGeometry>
        </mxCell>
        <mxCell id="AOKANxjYsAy5iQyD7HsB-95" value="" style="endArrow=none;html=1;rounded=0;entryX=0;entryY=0.5;entryDx=0;entryDy=0;exitX=0.333;exitY=0.25;exitDx=0;exitDy=0;exitPerimeter=0;" edge="1" parent="1" source="AOKANxjYsAy5iQyD7HsB-41" target="AOKANxjYsAy5iQyD7HsB-55">
          <mxGeometry width="50" height="50" relative="1" as="geometry">
            <mxPoint x="160" y="670" as="sourcePoint" />
            <mxPoint x="210" y="620" as="targetPoint" />
          </mxGeometry>
        </mxCell>
        <mxCell id="AOKANxjYsAy5iQyD7HsB-98" value="" style="endArrow=none;html=1;rounded=0;entryX=0;entryY=0.5;entryDx=0;entryDy=0;exitX=0.333;exitY=0.85;exitDx=0;exitDy=0;exitPerimeter=0;" edge="1" parent="1" source="AOKANxjYsAy5iQyD7HsB-41" target="AOKANxjYsAy5iQyD7HsB-85">
          <mxGeometry width="50" height="50" relative="1" as="geometry">
            <mxPoint x="290" y="120" as="sourcePoint" />
            <mxPoint x="340" y="70" as="targetPoint" />
          </mxGeometry>
        </mxCell>
        <mxCell id="AOKANxjYsAy5iQyD7HsB-99" value="" style="endArrow=none;html=1;rounded=0;entryX=0.5;entryY=0.683;entryDx=0;entryDy=0;entryPerimeter=0;exitX=1;exitY=0.5;exitDx=0;exitDy=0;" edge="1" parent="1" source="AOKANxjYsAy5iQyD7HsB-63" target="AOKANxjYsAy5iQyD7HsB-42">
          <mxGeometry width="50" height="50" relative="1" as="geometry">
            <mxPoint x="690" y="250" as="sourcePoint" />
            <mxPoint x="740" y="200" as="targetPoint" />
          </mxGeometry>
        </mxCell>
        <mxCell id="AOKANxjYsAy5iQyD7HsB-100" value="" style="endArrow=none;html=1;rounded=0;entryX=0;entryY=0.5;entryDx=0;entryDy=0;exitX=0.433;exitY=0.617;exitDx=0;exitDy=0;exitPerimeter=0;" edge="1" parent="1" source="AOKANxjYsAy5iQyD7HsB-44" target="AOKANxjYsAy5iQyD7HsB-64">
          <mxGeometry width="50" height="50" relative="1" as="geometry">
            <mxPoint x="80" y="140" as="sourcePoint" />
            <mxPoint x="130" y="90" as="targetPoint" />
          </mxGeometry>
        </mxCell>
        <mxCell id="AOKANxjYsAy5iQyD7HsB-101" value="" style="endArrow=none;html=1;rounded=0;entryX=0;entryY=0.5;entryDx=0;entryDy=0;exitX=0.533;exitY=0.733;exitDx=0;exitDy=0;exitPerimeter=0;" edge="1" parent="1" source="AOKANxjYsAy5iQyD7HsB-44" target="AOKANxjYsAy5iQyD7HsB-65">
          <mxGeometry width="50" height="50" relative="1" as="geometry">
            <mxPoint y="260" as="sourcePoint" />
            <mxPoint x="50" y="210" as="targetPoint" />
          </mxGeometry>
        </mxCell>
        <mxCell id="AOKANxjYsAy5iQyD7HsB-102" value="" style="endArrow=none;html=1;rounded=0;entryX=0;entryY=0.5;entryDx=0;entryDy=0;exitX=0.433;exitY=0.667;exitDx=0;exitDy=0;exitPerimeter=0;" edge="1" parent="1" source="AOKANxjYsAy5iQyD7HsB-41" target="AOKANxjYsAy5iQyD7HsB-56">
          <mxGeometry width="50" height="50" relative="1" as="geometry">
            <mxPoint x="50" y="380" as="sourcePoint" />
            <mxPoint x="610" y="300" as="targetPoint" />
          </mxGeometry>
        </mxCell>
        <mxCell id="AOKANxjYsAy5iQyD7HsB-103" value="" style="endArrow=none;html=1;rounded=0;exitX=1;exitY=0.5;exitDx=0;exitDy=0;entryX=0.5;entryY=0.683;entryDx=0;entryDy=0;entryPerimeter=0;" edge="1" parent="1" source="AOKANxjYsAy5iQyD7HsB-56" target="AOKANxjYsAy5iQyD7HsB-42">
          <mxGeometry width="50" height="50" relative="1" as="geometry">
            <mxPoint x="560" y="350" as="sourcePoint" />
            <mxPoint x="610" y="300" as="targetPoint" />
          </mxGeometry>
        </mxCell>
        <mxCell id="AOKANxjYsAy5iQyD7HsB-104" value="" style="endArrow=none;html=1;rounded=0;exitX=0.5;exitY=0.5;exitDx=0;exitDy=0;exitPerimeter=0;entryX=0;entryY=0.5;entryDx=0;entryDy=0;" edge="1" parent="1" source="AOKANxjYsAy5iQyD7HsB-44" target="AOKANxjYsAy5iQyD7HsB-86">
          <mxGeometry width="50" height="50" relative="1" as="geometry">
            <mxPoint x="60" y="90" as="sourcePoint" />
            <mxPoint x="110" y="40" as="targetPoint" />
          </mxGeometry>
        </mxCell>
        <mxCell id="AOKANxjYsAy5iQyD7HsB-105" value="" style="endArrow=none;html=1;rounded=0;entryX=0.333;entryY=0.783;entryDx=0;entryDy=0;entryPerimeter=0;exitX=0;exitY=0.5;exitDx=0;exitDy=0;" edge="1" parent="1" source="AOKANxjYsAy5iQyD7HsB-88" target="AOKANxjYsAy5iQyD7HsB-44">
          <mxGeometry width="50" height="50" relative="1" as="geometry">
            <mxPoint x="30" y="270" as="sourcePoint" />
            <mxPoint x="80" y="220" as="targetPoint" />
          </mxGeometry>
        </mxCell>
        <mxCell id="AOKANxjYsAy5iQyD7HsB-106" value="" style="endArrow=none;html=1;rounded=0;exitX=0.4;exitY=0.283;exitDx=0;exitDy=0;exitPerimeter=0;entryX=0;entryY=0.5;entryDx=0;entryDy=0;" edge="1" parent="1" source="AOKANxjYsAy5iQyD7HsB-41" target="AOKANxjYsAy5iQyD7HsB-87">
          <mxGeometry width="50" height="50" relative="1" as="geometry">
            <mxPoint x="560" y="350" as="sourcePoint" />
            <mxPoint x="610" y="300" as="targetPoint" />
          </mxGeometry>
        </mxCell>
        <mxCell id="AOKANxjYsAy5iQyD7HsB-107" value="" style="endArrow=none;html=1;rounded=0;exitX=0;exitY=0.5;exitDx=0;exitDy=0;entryX=0.2;entryY=0.817;entryDx=0;entryDy=0;entryPerimeter=0;" edge="1" parent="1" source="AOKANxjYsAy5iQyD7HsB-84" target="AOKANxjYsAy5iQyD7HsB-41">
          <mxGeometry width="50" height="50" relative="1" as="geometry">
            <mxPoint x="560" y="350" as="sourcePoint" />
            <mxPoint x="610" y="300" as="targetPoint" />
          </mxGeometry>
        </mxCell>
        <mxCell id="AOKANxjYsAy5iQyD7HsB-108" value="" style="endArrow=none;html=1;rounded=0;entryX=1;entryY=0.5;entryDx=0;entryDy=0;exitX=0.533;exitY=0.617;exitDx=0;exitDy=0;exitPerimeter=0;" edge="1" parent="1" source="AOKANxjYsAy5iQyD7HsB-42" target="AOKANxjYsAy5iQyD7HsB-49">
          <mxGeometry width="50" height="50" relative="1" as="geometry">
            <mxPoint x="450" y="350" as="sourcePoint" />
            <mxPoint x="500" y="300" as="targetPoint" />
          </mxGeometry>
        </mxCell>
        <mxCell id="AOKANxjYsAy5iQyD7HsB-109" value="" style="endArrow=none;html=1;rounded=0;exitX=1;exitY=0.5;exitDx=0;exitDy=0;entryX=0.667;entryY=0.667;entryDx=0;entryDy=0;entryPerimeter=0;" edge="1" parent="1" source="AOKANxjYsAy5iQyD7HsB-52" target="AOKANxjYsAy5iQyD7HsB-42">
          <mxGeometry width="50" height="50" relative="1" as="geometry">
            <mxPoint x="560" y="350" as="sourcePoint" />
            <mxPoint x="610" y="300" as="targetPoint" />
          </mxGeometry>
        </mxCell>
        <mxCell id="AOKANxjYsAy5iQyD7HsB-110" value="" style="endArrow=none;html=1;rounded=0;exitX=1;exitY=0.5;exitDx=0;exitDy=0;entryX=0.433;entryY=0.75;entryDx=0;entryDy=0;entryPerimeter=0;" edge="1" parent="1" source="AOKANxjYsAy5iQyD7HsB-57" target="AOKANxjYsAy5iQyD7HsB-42">
          <mxGeometry width="50" height="50" relative="1" as="geometry">
            <mxPoint x="560" y="350" as="sourcePoint" />
            <mxPoint x="610" y="300" as="targetPoint" />
          </mxGeometry>
        </mxCell>
        <mxCell id="AOKANxjYsAy5iQyD7HsB-111" value="" style="endArrow=none;html=1;rounded=0;entryX=1;entryY=0.5;entryDx=0;entryDy=0;exitX=0.533;exitY=0.767;exitDx=0;exitDy=0;exitPerimeter=0;" edge="1" parent="1" source="AOKANxjYsAy5iQyD7HsB-42" target="AOKANxjYsAy5iQyD7HsB-60">
          <mxGeometry width="50" height="50" relative="1" as="geometry">
            <mxPoint x="560" y="350" as="sourcePoint" />
            <mxPoint x="610" y="300" as="targetPoint" />
          </mxGeometry>
        </mxCell>
        <mxCell id="AOKANxjYsAy5iQyD7HsB-112" value="" style="endArrow=none;html=1;rounded=0;exitX=0;exitY=0.5;exitDx=0;exitDy=0;entryX=0.4;entryY=0.7;entryDx=0;entryDy=0;entryPerimeter=0;" edge="1" parent="1" source="AOKANxjYsAy5iQyD7HsB-68" target="AOKANxjYsAy5iQyD7HsB-44">
          <mxGeometry width="50" height="50" relative="1" as="geometry">
            <mxPoint x="560" y="350" as="sourcePoint" />
            <mxPoint x="610" y="300" as="targetPoint" />
          </mxGeometry>
        </mxCell>
        <mxCell id="AOKANxjYsAy5iQyD7HsB-114" value="" style="endArrow=none;html=1;rounded=0;exitX=0;exitY=0.5;exitDx=0;exitDy=0;entryX=0.333;entryY=0.833;entryDx=0;entryDy=0;entryPerimeter=0;" edge="1" parent="1" source="AOKANxjYsAy5iQyD7HsB-113" target="AOKANxjYsAy5iQyD7HsB-44">
          <mxGeometry width="50" height="50" relative="1" as="geometry">
            <mxPoint x="560" y="350" as="sourcePoint" />
            <mxPoint x="610" y="300" as="targetPoint" />
          </mxGeometry>
        </mxCell>
        <mxCell id="AOKANxjYsAy5iQyD7HsB-115" value="" style="endArrow=none;html=1;rounded=0;exitX=0.5;exitY=0.5;exitDx=0;exitDy=0;exitPerimeter=0;entryX=0;entryY=0.5;entryDx=0;entryDy=0;" edge="1" parent="1" source="AOKANxjYsAy5iQyD7HsB-41" target="AOKANxjYsAy5iQyD7HsB-83">
          <mxGeometry width="50" height="50" relative="1" as="geometry">
            <mxPoint x="560" y="350" as="sourcePoint" />
            <mxPoint x="610" y="300" as="targetPoint" />
          </mxGeometry>
        </mxCell>
        <mxCell id="AOKANxjYsAy5iQyD7HsB-92" value="" style="endArrow=none;html=1;rounded=0;exitX=0.467;exitY=0.65;exitDx=0;exitDy=0;exitPerimeter=0;entryX=0;entryY=0.5;entryDx=0;entryDy=0;" edge="1" parent="1" source="AOKANxjYsAy5iQyD7HsB-41" target="AOKANxjYsAy5iQyD7HsB-82">
          <mxGeometry width="50" height="50" relative="1" as="geometry">
            <mxPoint x="80" y="340" as="sourcePoint" />
            <mxPoint x="210" y="460" as="targetPoint" />
          </mxGeometry>
        </mxCell>
        <mxCell id="AOKANxjYsAy5iQyD7HsB-91" value="" style="endArrow=none;html=1;rounded=0;exitX=0.433;exitY=0.75;exitDx=0;exitDy=0;exitPerimeter=0;entryX=0;entryY=0.5;entryDx=0;entryDy=0;" edge="1" parent="1" source="AOKANxjYsAy5iQyD7HsB-44" target="AOKANxjYsAy5iQyD7HsB-59">
          <mxGeometry width="50" height="50" relative="1" as="geometry">
            <mxPoint x="170" y="410" as="sourcePoint" />
            <mxPoint x="220" y="360" as="targetPoint" />
          </mxGeometry>
        </mxCell>
      </root>
    </mxGraphModel>
  </diagram>
</mxfile>
